<?xml version="1.0" encoding="iso-8859-1"?>
<!-- Generator: Adobe Illustrator 19.0.0, SVG Export Plug-In . SVG Version: 6.00 Build 0)  -->
<svg xmlns="http://www.w3.org/2000/svg" xmlns:xlink="http://www.w3.org/1999/xlink" version="1.1" id="Layer_1" x="0px" y="0px" viewBox="0 0 512 512" style="enable-background:new 0 0 512 512;" xml:space="preserve" width="512" height="512">
<g>
	<path style="fill:#E3FAFA;" d="M366.1,0H97.706C61.499,0,32.042,29.457,32.042,65.665v380.67c0,36.208,29.457,65.665,65.665,65.665   H366.1c36.208,0,65.665-29.457,65.665-65.665V65.665C431.764,29.457,402.307,0,366.1,0z"/>
	<path style="fill:#AFD9DB;" d="M366.1,0H231.916v512H366.1c36.208,0,65.665-29.457,65.665-65.665V65.665   C431.764,29.457,402.307,0,366.1,0z"/>
	<g>
		<path style="fill:#677EAD;" d="M117.279,114.68h16.023c8.284,0,15-6.716,15-15s-6.716-15-15-15h-16.023c-8.284,0-15,6.716-15,15    S108.995,114.68,117.279,114.68z"/>
		<path style="fill:#677EAD;" d="M187.999,114.68h158.554c8.284,0,15-6.716,15-15s-6.716-15-15-15H187.999c-8.284,0-15,6.716-15,15    S179.714,114.68,187.999,114.68z"/>
		<path style="fill:#677EAD;" d="M346.552,149.383H187.999c-8.284,0-15,6.716-15,15s6.716,15,15,15h158.554c8.284,0,15-6.716,15-15    S354.837,149.383,346.552,149.383z"/>
		<path style="fill:#677EAD;" d="M117.279,179.383h18.258c8.284,0,15-6.716,15-15s-6.716-15-15-15h-18.258c-8.284,0-15,6.716-15,15    S108.995,179.383,117.279,179.383z"/>
		<path style="fill:#677EAD;" d="M346.552,214.086H117.279c-8.284,0-15,6.716-15,15s6.716,15,15,15h229.273c8.284,0,15-6.716,15-15    S354.837,214.086,346.552,214.086z"/>
		<path style="fill:#677EAD;" d="M258.718,278.789h-70.72c-8.284,0-15,6.716-15,15s6.716,15,15,15h70.72c8.284,0,15-6.716,15-15    S267.003,278.789,258.718,278.789z"/>
		<path style="fill:#677EAD;" d="M135.537,278.789h-18.258c-8.284,0-15,6.716-15,15s6.716,15,15,15h18.258c8.284,0,15-6.716,15-15    S143.821,278.789,135.537,278.789z"/>
	</g>
	<g>
		<path style="fill:#3D4866;" d="M346.552,84.68H231.903v30h114.649c8.284,0,15-6.716,15-15S354.837,84.68,346.552,84.68z"/>
		<path style="fill:#3D4866;" d="M346.552,149.383H231.903v30h114.649c8.284,0,15-6.716,15-15S354.837,149.383,346.552,149.383z"/>
		<path style="fill:#3D4866;" d="M346.552,214.086H231.903v30h114.649c8.284,0,15-6.716,15-15S354.837,214.086,346.552,214.086z"/>
		<path style="fill:#3D4866;" d="M258.718,278.789h-26.815v30h26.815c8.284,0,15-6.716,15-15S267.003,278.789,258.718,278.789z"/>
	</g>
	<path style="fill:#FF9B65;" d="M468.091,242.525c-15.823-15.823-41.57-15.823-57.394,0L267.495,385.727   c-1.05,1.051-1.765,2.389-2.054,3.846l-11.564,58.352c-0.486,2.455,0.284,4.991,2.054,6.762c1.42,1.42,3.333,2.196,5.303,2.196   c0.485,0,0.973-0.047,1.458-0.144l58.351-11.564c1.457-0.288,2.795-1.003,3.845-2.053l143.203-143.203   C483.914,284.095,483.914,258.349,468.091,242.525z"/>
	<path style="fill:#D67255;" d="M468.091,242.525l-212.16,212.161c1.42,1.42,3.333,2.196,5.303,2.196   c0.485,0,0.973-0.047,1.458-0.144l58.351-11.564c1.457-0.288,2.795-1.003,3.845-2.053l143.203-143.203   C483.914,284.095,483.914,258.349,468.091,242.525z"/>
</g>















</svg>
